<svg width="46" height="27" fill="none" xmlns="http://www.w3.org/2000/svg"><path d="M28.666 24.116H16.46V2.89h12.205v21.227z" fill="#757575"/><path d="M17.241 13.5c0-4.306 2.084-8.142 5.328-10.614A14.184 14.184 0 0013.949 0C6.244 0 0 6.044 0 13.5S6.245 27 13.948 27c3.254 0 6.248-1.079 8.62-2.886-3.243-2.472-5.327-6.308-5.327-10.614z" fill="#505050"/><path d="M45.124 13.5c0 7.456-6.244 13.5-13.948 13.5a14.19 14.19 0 01-8.622-2.886c3.246-2.472 5.329-6.308 5.329-10.614 0-4.306-2.083-8.142-5.329-10.614A14.189 14.189 0 0131.176 0c7.704 0 13.948 6.044 13.948 13.5z" fill="#5F5F5F"/></svg>