<svg width="52" height="17" fill="none" xmlns="http://www.w3.org/2000/svg"><path d="M22.752 16.487h-4.106L21.212.718h4.106l-2.567 15.77zM15.192.718l-3.914 10.846-.463-2.335-1.381-7.09S9.267.718 7.486.718h-6.47L.94.984s1.979.412 4.294 1.803l3.567 13.7h4.278L19.61.718h-4.419zm32.292 15.77h3.77L47.967.717h-3.3c-1.524 0-1.895 1.175-1.895 1.175l-6.123 14.594h4.28l.855-2.342h5.22l.48 2.342zm-4.517-5.579l2.157-5.9 1.213 5.9h-3.37zM36.97 4.51l.586-3.386S35.748.437 33.863.437c-2.037 0-6.876.89-6.876 5.22 0 4.074 5.679 4.124 5.679 6.264 0 2.14-5.094 1.757-6.774.407l-.61 3.541s1.832.89 4.633.89c2.802 0 7.028-1.45 7.028-5.398 0-4.1-5.73-4.482-5.73-6.265.001-1.783 4-1.554 5.757-.586z" fill="#4F4F4F"/><path d="M10.813 9.23L9.432 2.138S9.265.718 7.485.718H1.014L.938.985s3.11.645 6.093 3.06c2.852 2.308 3.782 5.185 3.782 5.185z" fill="#939393"/></svg>